<?xml version="1.0" standalone="no"?>
<!DOCTYPE svg PUBLIC "-//W3C//DTD SVG 20010904//EN"
 "http://www.w3.org/TR/2001/REC-SVG-20010904/DTD/svg10.dtd">
<svg version="1.0" xmlns="http://www.w3.org/2000/svg"
 width="300.000000pt" height="147.000000pt" viewBox="0 0 300.000000 147.000000"
 preserveAspectRatio="xMidYMid meet">
<metadata>
Created by potrace 1.10, written by Peter Selinger 2001-2011
</metadata>
<g transform="translate(0.000000,147.000000) scale(0.100000,-0.100000)"
fill="#000000" stroke="none">
<path d="M640 1169 c-45 -16 -63 -62 -57 -138 5 -59 3 -69 -14 -79 -16 -10
-17 -16 -9 -32 9 -17 14 -18 31 -9 12 6 23 8 27 5 3 -3 23 -48 43 -98 38 -91
38 -107 3 -108 -16 0 -163 -96 -197 -128 -62 -59 -68 -179 -12 -232 38 -36
133 -40 203 -10 104 45 138 116 128 263 -5 83 -4 90 16 106 28 23 15 43 -25
39 -32 -3 -32 -2 -74 102 l-42 104 25 17 c35 23 94 108 94 135 0 30 -22 51
-68 64 -42 11 -39 11 -72 -1z m80 -54 c10 -12 8 -21 -10 -50 -21 -33 -56 -65
-72 -65 -15 0 -9 98 8 114 19 20 58 21 74 1z m18 -532 c5 -95 -10 -138 -63
-178 -26 -21 -51 -30 -90 -33 -75 -6 -100 2 -115 38 -21 50 -5 99 50 152 53
51 189 123 204 108 5 -5 11 -44 14 -87z"/>
<path d="M1077 890 c-55 -43 -38 -114 36 -151 56 -28 87 -58 87 -84 0 -31 -19
-45 -61 -45 -41 0 -69 21 -69 51 0 10 -7 19 -15 19 -10 0 -15 -11 -15 -35 0
-42 25 -58 90 -59 60 -1 97 23 106 69 8 45 -13 78 -69 106 -82 42 -106 79 -69
112 36 32 92 11 92 -35 0 -32 25 -15 28 20 3 27 -1 34 -23 42 -42 16 -90 12
-118 -10z"/>
<path d="M1575 821 c-48 -12 -74 -29 -90 -61 -46 -89 19 -174 131 -173 70 0
94 15 94 58 0 19 5 35 10 35 6 0 10 5 10 10 0 6 -22 10 -50 10 -51 0 -67 -13
-29 -23 16 -4 20 -12 17 -34 -3 -26 -7 -28 -50 -31 -41 -3 -52 1 -72 23 -64
69 -27 166 63 167 43 0 71 -15 71 -38 0 -8 7 -14 15 -14 22 0 20 57 -2 64 -39
11 -90 14 -118 7z"/>
<path d="M2314 818 c-6 -7 -27 -51 -49 -98 -21 -47 -44 -92 -52 -101 -20 -24
-16 -29 22 -29 19 0 35 5 35 10 0 6 -4 10 -10 10 -5 0 -10 9 -10 20 0 15 7 20
29 20 16 0 42 3 58 6 25 5 31 2 36 -17 4 -15 0 -27 -11 -35 -14 -11 -8 -13 43
-13 50 0 57 2 44 12 -9 7 -41 61 -71 121 -40 80 -57 104 -64 94z m19 -91 c9
-23 17 -46 17 -50 0 -4 -18 -7 -40 -7 -22 0 -40 3 -40 7 0 13 35 93 40 93 3 0
13 -19 23 -43z"/>
<path d="M1300 810 c0 -5 7 -10 15 -10 8 0 15 -6 16 -12 1 -12 0 -123 -1 -160
0 -10 -7 -18 -15 -18 -8 0 -15 -4 -15 -10 0 -5 25 -10 55 -10 54 0 74 13 35
23 -18 5 -20 14 -20 80 0 84 6 107 26 107 8 0 14 5 14 10 0 6 -25 10 -55 10
-30 0 -55 -4 -55 -10z"/>
<path d="M1827 802 c21 -16 22 -20 12 -97 -9 -62 -16 -84 -32 -97 -22 -17 -21
-18 33 -18 54 0 55 1 32 18 -21 16 -22 21 -14 87 l8 70 44 -87 c25 -49 48 -88
52 -88 4 0 28 39 52 88 l44 87 6 -50 c4 -27 9 -59 11 -70 3 -12 -4 -26 -17
-36 -21 -16 -20 -17 35 -20 57 -4 70 4 42 25 -9 6 -19 44 -26 90 -11 70 -10
80 5 91 24 18 20 25 -17 25 -31 0 -35 -5 -76 -85 -24 -46 -47 -83 -50 -81 -3
2 -24 41 -46 85 l-39 81 -41 0 c-40 0 -40 -1 -18 -18z"/>
</g>
</svg>
